<?xml version="1.0" encoding="UTF-8"?>
<!--Generator: Apple Native CoreSVG 123-->
<!DOCTYPE svg
PUBLIC "-//W3C//DTD SVG 1.1//EN"
       "http://www.w3.org/Graphics/SVG/1.1/DTD/svg11.dtd">
<svg version="1.1" xmlns="http://www.w3.org/2000/svg" xmlns:xlink="http://www.w3.org/1999/xlink" width="3300" height="2200">
 <!--glyph: "uni1000ED.medium", point size: 100.000000, font version: "Version 15.0d7e11", template writer version: "5"-->
 <g id="Notes">
  <rect height="2200" id="artboard" style="fill:white;opacity:1" width="3300" x="0" y="0"/>
  <line id="" style="fill:none;stroke:black;opacity:1;stroke-width:0.5;" x1="263" x2="3036" y1="292" y2="292"/>
  <text style="stroke:none;fill:black;font-family:-apple-system,&quot;SF Pro Display&quot;,&quot;SF Pro Text&quot;,Helvetica,sans-serif;font-weight:bold;" transform="matrix(1 0 0 1 263 322)">Weight/Scale Variations</text>
  <text style="stroke:none;fill:black;font-family:-apple-system,&quot;SF Pro Display&quot;,&quot;SF Pro Text&quot;,Helvetica,sans-serif;text-anchor:middle;" transform="matrix(1 0 0 1 559.711 322)">Ultralight</text>
  <text style="stroke:none;fill:black;font-family:-apple-system,&quot;SF Pro Display&quot;,&quot;SF Pro Text&quot;,Helvetica,sans-serif;text-anchor:middle;" transform="matrix(1 0 0 1 856.422 322)">Thin</text>
  <text style="stroke:none;fill:black;font-family:-apple-system,&quot;SF Pro Display&quot;,&quot;SF Pro Text&quot;,Helvetica,sans-serif;text-anchor:middle;" transform="matrix(1 0 0 1 1153.13 322)">Light</text>
  <text style="stroke:none;fill:black;font-family:-apple-system,&quot;SF Pro Display&quot;,&quot;SF Pro Text&quot;,Helvetica,sans-serif;text-anchor:middle;" transform="matrix(1 0 0 1 1449.84 322)">Regular</text>
  <text style="stroke:none;fill:black;font-family:-apple-system,&quot;SF Pro Display&quot;,&quot;SF Pro Text&quot;,Helvetica,sans-serif;text-anchor:middle;" transform="matrix(1 0 0 1 1746.56 322)">Medium</text>
  <text style="stroke:none;fill:black;font-family:-apple-system,&quot;SF Pro Display&quot;,&quot;SF Pro Text&quot;,Helvetica,sans-serif;text-anchor:middle;" transform="matrix(1 0 0 1 2043.27 322)">Semibold</text>
  <text style="stroke:none;fill:black;font-family:-apple-system,&quot;SF Pro Display&quot;,&quot;SF Pro Text&quot;,Helvetica,sans-serif;text-anchor:middle;" transform="matrix(1 0 0 1 2339.98 322)">Bold</text>
  <text style="stroke:none;fill:black;font-family:-apple-system,&quot;SF Pro Display&quot;,&quot;SF Pro Text&quot;,Helvetica,sans-serif;text-anchor:middle;" transform="matrix(1 0 0 1 2636.69 322)">Heavy</text>
  <text style="stroke:none;fill:black;font-family:-apple-system,&quot;SF Pro Display&quot;,&quot;SF Pro Text&quot;,Helvetica,sans-serif;text-anchor:middle;" transform="matrix(1 0 0 1 2933.4 322)">Black</text>
  <line id="" style="fill:none;stroke:black;opacity:1;stroke-width:0.5;" x1="263" x2="3036" y1="1903" y2="1903"/>
  <g id="" transform="matrix(1 0 0 1 263 1933)">
   <path d="M 9.24805 0.830078 C 13.5547 0.830078 17.1387 -2.74414 17.1387 -7.05078 C 17.1387 -11.3574 13.5449 -14.9316 9.23828 -14.9316 C 4.94141 -14.9316 1.36719 -11.3574 1.36719 -7.05078 C 1.36719 -2.74414 4.95117 0.830078 9.24805 0.830078 Z M 9.24805 -0.654297 C 5.70312 -0.654297 2.87109 -3.49609 2.87109 -7.05078 C 2.87109 -10.6055 5.69336 -13.4473 9.23828 -13.4473 C 12.793 -13.4473 15.6348 -10.6055 15.6445 -7.05078 C 15.6543 -3.49609 12.8027 -0.654297 9.24805 -0.654297 Z M 9.22852 -3.42773 C 9.69727 -3.42773 9.9707 -3.74023 9.9707 -4.25781 L 9.9707 -6.31836 L 12.1973 -6.31836 C 12.6953 -6.31836 13.0371 -6.57227 13.0371 -7.04102 C 13.0371 -7.51953 12.7148 -7.7832 12.1973 -7.7832 L 9.9707 -7.7832 L 9.9707 -10.0098 C 9.9707 -10.5273 9.69727 -10.8496 9.22852 -10.8496 C 8.75977 -10.8496 8.50586 -10.5078 8.50586 -10.0098 L 8.50586 -7.7832 L 6.29883 -7.7832 C 5.78125 -7.7832 5.44922 -7.51953 5.44922 -7.04102 C 5.44922 -6.57227 5.80078 -6.31836 6.29883 -6.31836 L 8.50586 -6.31836 L 8.50586 -4.25781 C 8.50586 -3.75977 8.75977 -3.42773 9.22852 -3.42773 Z"/>
  </g>
  <g id="" transform="matrix(1 0 0 1 281.506 1933)">
   <path d="M 11.709 2.91016 C 17.1582 2.91016 21.6699 -1.60156 21.6699 -7.05078 C 21.6699 -12.4902 17.1484 -17.0117 11.6992 -17.0117 C 6.25977 -17.0117 1.74805 -12.4902 1.74805 -7.05078 C 1.74805 -1.60156 6.26953 2.91016 11.709 2.91016 Z M 11.709 1.25 C 7.09961 1.25 3.41797 -2.44141 3.41797 -7.05078 C 3.41797 -11.6504 7.08984 -15.3516 11.6992 -15.3516 C 16.3086 -15.3516 20 -11.6504 20.0098 -7.05078 C 20.0195 -2.44141 16.3184 1.25 11.709 1.25 Z M 11.6895 -2.41211 C 12.207 -2.41211 12.5195 -2.77344 12.5195 -3.33984 L 12.5195 -6.23047 L 15.5762 -6.23047 C 16.123 -6.23047 16.5039 -6.51367 16.5039 -7.03125 C 16.5039 -7.55859 16.1426 -7.86133 15.5762 -7.86133 L 12.5195 -7.86133 L 12.5195 -10.9277 C 12.5195 -11.5039 12.207 -11.8555 11.6895 -11.8555 C 11.1719 -11.8555 10.8789 -11.4844 10.8789 -10.9277 L 10.8789 -7.86133 L 7.83203 -7.86133 C 7.26562 -7.86133 6.89453 -7.55859 6.89453 -7.03125 C 6.89453 -6.51367 7.28516 -6.23047 7.83203 -6.23047 L 10.8789 -6.23047 L 10.8789 -3.33984 C 10.8789 -2.79297 11.1719 -2.41211 11.6895 -2.41211 Z"/>
  </g>
  <g id="" transform="matrix(1 0 0 1 304.924 1933)">
   <path d="M 14.9707 5.67383 C 21.9336 5.67383 27.6953 -0.078125 27.6953 -7.04102 C 27.6953 -14.0039 21.9238 -19.7559 14.9609 -19.7559 C 8.00781 -19.7559 2.25586 -14.0039 2.25586 -7.04102 C 2.25586 -0.078125 8.01758 5.67383 14.9707 5.67383 Z M 14.9707 3.85742 C 8.93555 3.85742 4.08203 -1.00586 4.08203 -7.04102 C 4.08203 -13.0762 8.92578 -17.9395 14.9609 -17.9395 C 21.0059 -17.9395 25.8594 -13.0762 25.8691 -7.04102 C 25.8789 -1.00586 21.0156 3.85742 14.9707 3.85742 Z M 14.9512 -1.06445 C 15.5176 -1.06445 15.8691 -1.45508 15.8691 -2.06055 L 15.8691 -6.13281 L 20.1074 -6.13281 C 20.6934 -6.13281 21.1133 -6.46484 21.1133 -7.02148 C 21.1133 -7.59766 20.7227 -7.93945 20.1074 -7.93945 L 15.8691 -7.93945 L 15.8691 -12.1875 C 15.8691 -12.8027 15.5176 -13.1934 14.9512 -13.1934 C 14.3848 -13.1934 14.0625 -12.7832 14.0625 -12.1875 L 14.0625 -7.93945 L 9.83398 -7.93945 C 9.21875 -7.93945 8.80859 -7.59766 8.80859 -7.02148 C 8.80859 -6.46484 9.23828 -6.13281 9.83398 -6.13281 L 14.0625 -6.13281 L 14.0625 -2.06055 C 14.0625 -1.47461 14.3848 -1.06445 14.9512 -1.06445 Z"/>
  </g>
  <text style="stroke:none;fill:black;font-family:-apple-system,&quot;SF Pro Display&quot;,&quot;SF Pro Text&quot;,Helvetica,sans-serif;font-weight:bold;" transform="matrix(1 0 0 1 263 1953)">Design Variations</text>
  <text style="stroke:none;fill:black;font-family:-apple-system,&quot;SF Pro Display&quot;,&quot;SF Pro Text&quot;,Helvetica,sans-serif;" transform="matrix(1 0 0 1 263 1971)">Symbols are supported in up to nine weights and three scales.</text>
  <text style="stroke:none;fill:black;font-family:-apple-system,&quot;SF Pro Display&quot;,&quot;SF Pro Text&quot;,Helvetica,sans-serif;" transform="matrix(1 0 0 1 263 1989)">For optimal layout with text and other symbols, vertically align</text>
  <text style="stroke:none;fill:black;font-family:-apple-system,&quot;SF Pro Display&quot;,&quot;SF Pro Text&quot;,Helvetica,sans-serif;" transform="matrix(1 0 0 1 263 2007)">symbols with the adjacent text.</text>
  <rect height="14" id="" style="fill:#00AEEF;stroke:none;opacity:0.4;" width="3" x="776" y="1919"/>
  <g id="" transform="matrix(1 0 0 1 779 1933)">
   <path d="M 10.5273 0 L 12.373 0 L 7.17773 -14.0918 L 5.43945 -14.0918 L 0.244141 0 L 2.08984 0 L 3.50586 -4.0332 L 9.11133 -4.0332 Z M 6.2793 -11.9531 L 6.33789 -11.9531 L 8.59375 -5.52734 L 4.02344 -5.52734 Z"/>
  </g>
  <rect height="14" id="" style="fill:#00AEEF;stroke:none;opacity:0.4;" width="3" x="791.617" y="1919"/>
  <text style="stroke:none;fill:black;font-family:-apple-system,&quot;SF Pro Display&quot;,&quot;SF Pro Text&quot;,Helvetica,sans-serif;font-weight:bold;" transform="matrix(1 0 0 1 776 1953)">Margins</text>
  <text style="stroke:none;fill:black;font-family:-apple-system,&quot;SF Pro Display&quot;,&quot;SF Pro Text&quot;,Helvetica,sans-serif;" transform="matrix(1 0 0 1 776 1971)">Leading and trailing margins on the left and right side of each symbol</text>
  <text style="stroke:none;fill:black;font-family:-apple-system,&quot;SF Pro Display&quot;,&quot;SF Pro Text&quot;,Helvetica,sans-serif;" transform="matrix(1 0 0 1 776 1989)">can be adjusted by modifying the width of the blue rectangles.</text>
  <text style="stroke:none;fill:black;font-family:-apple-system,&quot;SF Pro Display&quot;,&quot;SF Pro Text&quot;,Helvetica,sans-serif;" transform="matrix(1 0 0 1 776 2007)">Modifications are automatically applied proportionally to all</text>
  <text style="stroke:none;fill:black;font-family:-apple-system,&quot;SF Pro Display&quot;,&quot;SF Pro Text&quot;,Helvetica,sans-serif;" transform="matrix(1 0 0 1 776 2025)">scales and weights.</text>
  <g id="" transform="matrix(1 0 0 1 1289 1933)">
   <path d="M 2.83203 3.11523 L 4.375 4.6582 C 5.22461 5.48828 6.19141 5.41992 7.06055 4.46289 L 17.2754 -6.66016 C 17.7051 -6.36719 18.0957 -6.37695 18.5645 -6.47461 L 19.6094 -6.68945 L 20.3027 -5.99609 L 20.2539 -5.47852 C 20.1855 -4.95117 20.3516 -4.53125 20.8496 -4.0332 L 21.6602 -3.22266 C 22.168 -2.71484 22.8223 -2.68555 23.3008 -3.16406 L 26.5527 -6.41602 C 27.0312 -6.89453 27.0117 -7.54883 26.5039 -8.05664 L 25.6836 -8.87695 C 25.1855 -9.375 24.7754 -9.55078 24.2383 -9.47266 L 23.7109 -9.41406 L 23.0566 -10.0781 L 23.3398 -11.2207 C 23.4863 -11.7871 23.3398 -12.2559 22.7148 -12.8613 L 20.3027 -15.2539 C 16.7578 -18.7793 12.2266 -18.6719 9.11133 -15.5371 C 8.69141 -15.1074 8.64258 -14.5215 8.91602 -14.0918 C 9.15039 -13.7207 9.62891 -13.4961 10.2734 -13.6621 C 11.7871 -14.043 13.3008 -13.9258 14.7852 -12.9199 L 14.1602 -11.3379 C 13.9258 -10.752 13.9453 -10.2734 14.1797 -9.83398 L 3.01758 0.439453 C 2.08008 1.30859 1.97266 2.25586 2.83203 3.11523 Z M 10.6738 -15.1465 C 13.3398 -17.1387 16.6504 -16.8262 19.0527 -14.4141 L 21.6797 -11.8066 C 21.9141 -11.5723 21.9434 -11.3867 21.8848 -11.0938 L 21.5039 -9.53125 L 23.0762 -7.95898 L 24.043 -8.04688 C 24.3262 -8.07617 24.4141 -8.05664 24.6387 -7.83203 L 25.2637 -7.20703 L 22.5098 -4.46289 L 21.8848 -5.07812 C 21.6602 -5.30273 21.6406 -5.40039 21.6699 -5.68359 L 21.7578 -6.64062 L 20.1953 -8.20312 L 18.5742 -7.89062 C 18.291 -7.83203 18.1445 -7.83203 17.9102 -8.07617 L 15.7324 -10.2539 C 15.5078 -10.4883 15.4785 -10.625 15.6055 -10.9473 L 16.5527 -13.2227 C 14.9512 -14.7559 12.8418 -15.6055 10.8008 -14.9512 C 10.7129 -14.9219 10.6445 -14.9414 10.6152 -14.9805 C 10.5859 -15.0293 10.5859 -15.0781 10.6738 -15.1465 Z M 4.10156 2.41211 C 3.61328 1.91406 3.78906 1.61133 4.12109 1.30859 L 15.0781 -8.80859 L 16.3086 -7.57812 L 6.15234 3.34961 C 5.84961 3.68164 5.46875 3.7793 5.06836 3.37891 Z"/>
  </g>
  <text style="stroke:none;fill:black;font-family:-apple-system,&quot;SF Pro Display&quot;,&quot;SF Pro Text&quot;,Helvetica,sans-serif;font-weight:bold;" transform="matrix(1 0 0 1 1289 1953)">Exporting</text>
  <text style="stroke:none;fill:black;font-family:-apple-system,&quot;SF Pro Display&quot;,&quot;SF Pro Text&quot;,Helvetica,sans-serif;" transform="matrix(1 0 0 1 1289 1971)">Symbols should be outlined when exporting to ensure the</text>
  <text style="stroke:none;fill:black;font-family:-apple-system,&quot;SF Pro Display&quot;,&quot;SF Pro Text&quot;,Helvetica,sans-serif;" transform="matrix(1 0 0 1 1289 1989)">design is preserved when submitting to Xcode.</text>
  <text id="template-version" style="stroke:none;fill:black;font-family:-apple-system,&quot;SF Pro Display&quot;,&quot;SF Pro Text&quot;,Helvetica,sans-serif;text-anchor:end;" transform="matrix(1 0 0 1 3036 1933)">Template v.1.0</text>
  <text style="stroke:none;fill:black;font-family:-apple-system,&quot;SF Pro Display&quot;,&quot;SF Pro Text&quot;,Helvetica,sans-serif;text-anchor:end;" transform="matrix(1 0 0 1 3036 1951)">Generated from questionmark.square.fill</text>
  <text style="stroke:none;fill:black;font-family:-apple-system,&quot;SF Pro Display&quot;,&quot;SF Pro Text&quot;,Helvetica,sans-serif;text-anchor:end;" transform="matrix(1 0 0 1 3036 1969)">Typeset at 100 points</text>
  <text style="stroke:none;fill:black;font-family:-apple-system,&quot;SF Pro Display&quot;,&quot;SF Pro Text&quot;,Helvetica,sans-serif;" transform="matrix(1 0 0 1 263 726)">Small</text>
  <text style="stroke:none;fill:black;font-family:-apple-system,&quot;SF Pro Display&quot;,&quot;SF Pro Text&quot;,Helvetica,sans-serif;" transform="matrix(1 0 0 1 263 1156)">Medium</text>
  <text style="stroke:none;fill:black;font-family:-apple-system,&quot;SF Pro Display&quot;,&quot;SF Pro Text&quot;,Helvetica,sans-serif;" transform="matrix(1 0 0 1 263 1586)">Large</text>
 </g>
 <g id="Guides">
  <g id="H-reference" style="fill:#27AAE1;stroke:none;" transform="matrix(1 0 0 1 339 696)">
   <path d="M 54.9316 0 L 57.666 0 L 30.5664 -70.459 L 28.0762 -70.459 L 0.976562 0 L 3.66211 0 L 12.9395 -24.4629 L 45.7031 -24.4629 Z M 29.1992 -67.0898 L 29.4434 -67.0898 L 44.8242 -26.709 L 13.8184 -26.709 Z"/>
  </g>
  <line id="Baseline-S" style="fill:none;stroke:#27AAE1;opacity:1;stroke-width:0.577;" x1="263" x2="3036" y1="696" y2="696"/>
  <line id="Capline-S" style="fill:none;stroke:#27AAE1;opacity:1;stroke-width:0.577;" x1="263" x2="3036" y1="625.541" y2="625.541"/>
  <g id="H-reference" style="fill:#27AAE1;stroke:none;" transform="matrix(1 0 0 1 339 1126)">
   <path d="M 54.9316 0 L 57.666 0 L 30.5664 -70.459 L 28.0762 -70.459 L 0.976562 0 L 3.66211 0 L 12.9395 -24.4629 L 45.7031 -24.4629 Z M 29.1992 -67.0898 L 29.4434 -67.0898 L 44.8242 -26.709 L 13.8184 -26.709 Z"/>
  </g>
  <line id="Baseline-M" style="fill:none;stroke:#27AAE1;opacity:1;stroke-width:0.577;" x1="263" x2="3036" y1="1126" y2="1126"/>
  <line id="Capline-M" style="fill:none;stroke:#27AAE1;opacity:1;stroke-width:0.577;" x1="263" x2="3036" y1="1055.54" y2="1055.54"/>
  <g id="H-reference" style="fill:#27AAE1;stroke:none;" transform="matrix(1 0 0 1 339 1556)">
   <path d="M 54.9316 0 L 57.666 0 L 30.5664 -70.459 L 28.0762 -70.459 L 0.976562 0 L 3.66211 0 L 12.9395 -24.4629 L 45.7031 -24.4629 Z M 29.1992 -67.0898 L 29.4434 -67.0898 L 44.8242 -26.709 L 13.8184 -26.709 Z"/>
  </g>
  <line id="Baseline-L" style="fill:none;stroke:#27AAE1;opacity:1;stroke-width:0.577;" x1="263" x2="3036" y1="1556" y2="1556"/>
  <line id="Capline-L" style="fill:none;stroke:#27AAE1;opacity:1;stroke-width:0.577;" x1="263" x2="3036" y1="1485.54" y2="1485.54"/>
  <rect height="119.336" id="left-margin" style="fill:#00AEEF;stroke:none;opacity:0.4;" width="12.4512" x="1392.45" y="1030.79"/>
  <rect height="119.336" id="right-margin" style="fill:#00AEEF;stroke:none;opacity:0.4;" width="12.4512" x="1494.79" y="1030.79"/>
 </g>
 <g id="Symbols">
  <g id="Black-L" transform="matrix(1 0 0 1 2855.62 1556)">
   <path d="M 39.9902 26.5137 L 115.576 26.5137 C 130.811 26.5137 139.502 17.8711 139.502 2.68555 L 139.502 -73.0957 C 139.502 -88.2812 130.811 -96.875 115.576 -96.875 L 39.9902 -96.875 C 24.7559 -96.875 16.0645 -88.2812 16.0645 -73.0957 L 16.0645 2.68555 C 16.0645 17.8711 24.7559 26.5137 39.9902 26.5137 Z M 76.8066 -23.7793 C 70.4102 -23.7793 66.9922 -26.2695 66.9922 -31.1523 L 66.9922 -31.3965 C 66.9922 -35.8398 70.1172 -38.916 74.6094 -41.9434 C 79.5898 -45.3613 82.373 -47.3633 82.373 -50.1953 C 82.373 -52.6855 80.5664 -54.248 77.8809 -54.248 C 75.8301 -54.248 74.2676 -53.418 72.1191 -51.3672 C 70.3125 -49.6582 68.6035 -47.6074 64.209 -47.6074 C 58.4961 -47.6074 55.4688 -50.9277 55.4688 -54.9805 C 55.4688 -56.4941 55.7617 -57.7148 56.2988 -59.082 C 59.082 -65.6738 67.6758 -70.0195 79.0039 -70.0195 C 92.4805 -70.0195 102.93 -62.5488 102.93 -51.2695 C 102.93 -44.2871 99.8535 -40.625 92.9199 -36.3281 C 89.6973 -34.3262 86.7676 -32.2754 85.9375 -29.7363 C 85.8887 -29.5898 85.8398 -29.4434 85.791 -29.2969 C 84.6191 -26.1719 81.5918 -23.7793 76.8066 -23.7793 Z M 77.2461 -2.53906 C 71.2402 -2.53906 67.4805 -5.71289 67.4805 -10.9863 C 67.4805 -16.2109 71.2402 -19.3848 77.2461 -19.3848 C 83.0078 -19.3848 86.8652 -16.2109 86.8652 -10.9863 C 86.8652 -5.71289 83.1055 -2.53906 77.2461 -2.53906 Z"/>
  </g>
  <g id="Heavy-L" transform="matrix(1 0 0 1 2559.93 1556)">
   <path d="M 38.8184 25.4883 L 114.697 25.4883 C 129.346 25.4883 137.451 17.4316 137.451 2.88086 L 137.451 -73.2422 C 137.451 -87.793 129.346 -95.8496 114.697 -95.8496 L 38.8184 -95.8496 C 24.2188 -95.8496 16.0645 -87.793 16.0645 -73.2422 L 16.0645 2.88086 C 16.0645 17.4316 24.2188 25.4883 38.8184 25.4883 Z M 75.7812 -23.291 C 70.2148 -23.291 67.1875 -25.5371 67.1875 -29.9805 L 67.1875 -30.4688 C 67.1875 -35.3027 70.3613 -38.4766 74.9512 -41.6504 C 80.1758 -45.2148 82.9102 -47.3145 82.9102 -50.5371 C 82.9102 -53.6621 80.5664 -55.7129 76.9531 -55.7129 C 74.1699 -55.7129 72.1191 -54.3945 70.0684 -51.8555 C 68.3105 -50 66.8457 -48.0469 62.6953 -48.0469 C 57.9102 -48.0469 55.0781 -50.9277 55.0781 -54.5898 C 55.0781 -56.0059 55.3711 -57.1777 55.8594 -58.4961 C 58.3496 -64.9902 66.6504 -69.6289 77.9297 -69.6289 C 90.7715 -69.6289 100.928 -62.5 100.928 -51.4648 C 100.928 -44.3359 97.6074 -40.6738 90.7715 -36.3281 C 87.207 -34.0332 84.4727 -31.9336 83.8379 -29.1016 C 83.7891 -28.9062 83.7402 -28.6621 83.6914 -28.4668 C 82.8125 -25.5371 80.0781 -23.291 75.7812 -23.291 Z M 76.1719 -2.68555 C 70.8008 -2.68555 67.1875 -5.76172 67.1875 -10.6445 C 67.1875 -15.4785 70.752 -18.5059 76.1719 -18.5059 C 81.3965 -18.5059 85.0586 -15.4297 85.0586 -10.6445 C 85.0586 -5.71289 81.4453 -2.68555 76.1719 -2.68555 Z"/>
  </g>
  <g id="Bold-L" transform="matrix(1 0 0 1 2264.37 1556)">
   <path d="M 37.5 24.3652 L 113.721 24.3652 C 127.637 24.3652 135.156 16.8945 135.156 3.07617 L 135.156 -73.3887 C 135.156 -87.207 127.637 -94.7266 113.721 -94.7266 L 37.5 -94.7266 C 23.6328 -94.7266 16.0645 -87.2559 16.0645 -73.3887 L 16.0645 3.07617 C 16.0645 16.8945 23.6328 24.3652 37.5 24.3652 Z M 74.6582 -22.7539 C 70.0195 -22.7539 67.4805 -24.7559 67.4805 -28.6621 L 67.4805 -29.3945 C 67.4805 -34.7168 70.6055 -38.0371 75.3418 -41.2598 C 80.8594 -45.0195 83.5449 -47.2168 83.5449 -50.9277 C 83.5449 -54.7852 80.5664 -57.373 75.9277 -57.373 C 72.3145 -57.373 69.6289 -55.5176 67.7734 -52.3438 C 66.0156 -50.3906 64.8438 -48.5352 61.084 -48.5352 C 57.2266 -48.5352 54.7363 -50.8789 54.7363 -54.1992 C 54.7363 -55.4688 54.9316 -56.5918 55.3711 -57.7637 C 57.5195 -64.209 65.4785 -69.1406 76.709 -69.1406 C 88.916 -69.1406 98.7305 -62.4512 98.7305 -51.6602 C 98.7305 -44.4336 95.1172 -40.7227 88.3789 -36.3281 C 84.4238 -33.6914 81.8848 -31.543 81.4941 -28.3203 C 81.4453 -28.0762 81.3965 -27.832 81.3965 -27.5391 C 80.8105 -24.8535 78.4668 -22.7539 74.6582 -22.7539 Z M 74.9512 -2.83203 C 70.2637 -2.83203 66.8457 -5.81055 66.8457 -10.2051 C 66.8457 -14.5996 70.2637 -17.5293 74.9512 -17.5293 C 79.5898 -17.5293 83.0078 -14.5996 83.0078 -10.2051 C 83.0078 -5.76172 79.5898 -2.83203 74.9512 -2.83203 Z"/>
  </g>
  <g id="Semibold-L" transform="matrix(1 0 0 1 1968.44 1556)">
   <path d="M 36.6211 23.584 L 113.037 23.584 C 126.514 23.584 133.594 16.5039 133.594 3.17383 L 133.594 -73.5352 C 133.594 -86.8164 126.514 -93.9453 113.037 -93.9453 L 36.6211 -93.9453 C 23.1934 -93.9453 16.0645 -86.8652 16.0645 -73.5352 L 16.0645 3.17383 C 16.0645 16.5527 23.1934 23.584 36.6211 23.584 Z M 73.877 -22.3633 C 69.873 -22.3633 67.627 -24.2188 67.627 -27.7832 L 67.627 -28.7109 C 67.627 -34.3262 70.8008 -37.6953 75.6348 -41.0156 C 81.2988 -44.9219 83.9844 -47.168 83.9844 -51.1719 C 83.9844 -55.5176 80.5664 -58.5449 75.2441 -58.5449 C 71.0449 -58.5449 67.9688 -56.25 66.2109 -52.7344 C 64.502 -50.6348 63.5254 -48.877 59.9121 -48.877 C 56.7871 -48.877 54.4434 -50.8789 54.4434 -53.9062 C 54.4434 -55.0781 54.6875 -56.1523 55.0293 -57.2754 C 56.9336 -63.6719 64.6973 -68.8477 75.8301 -68.8477 C 87.5977 -68.8477 97.2168 -62.4023 97.2168 -51.8066 C 97.2168 -44.4824 93.4082 -40.7715 86.7676 -36.3281 C 82.5195 -33.4473 80.127 -31.25 79.834 -27.832 C 79.834 -27.5391 79.7852 -27.1973 79.7852 -26.9043 C 79.3945 -24.3652 77.2949 -22.3633 73.877 -22.3633 Z M 74.1211 -2.92969 C 69.9219 -2.92969 66.6016 -5.81055 66.6016 -9.96094 C 66.6016 -14.0137 69.873 -16.8945 74.1211 -16.8945 C 78.3203 -16.8945 81.6406 -14.0625 81.6406 -9.96094 C 81.6406 -5.76172 78.3203 -2.92969 74.1211 -2.92969 Z"/>
  </g>
  <g id="Medium-L" transform="matrix(1 0 0 1 1672.31 1556)">
   <path d="M 35.9375 22.998 L 112.5 22.998 C 125.635 22.998 132.422 16.2109 132.422 3.27148 L 132.422 -73.6328 C 132.422 -86.5234 125.635 -93.3105 112.5 -93.3105 L 35.9375 -93.3105 C 22.9004 -93.3105 16.0645 -86.5723 16.0645 -73.6328 L 16.0645 3.27148 C 16.0645 16.2598 22.9004 22.998 35.9375 22.998 Z M 73.291 -22.0703 C 69.7266 -22.0703 67.7734 -23.7793 67.7734 -27.0996 L 67.7734 -28.125 C 67.7734 -34.0332 70.9473 -37.4512 75.8301 -40.8203 C 81.6895 -44.8242 84.3262 -47.168 84.3262 -51.3672 C 84.3262 -56.1035 80.5664 -59.375 74.707 -59.375 C 70.0684 -59.375 66.6992 -56.8359 64.9902 -52.9785 C 63.2812 -50.8789 62.4512 -49.1211 59.082 -49.1211 C 56.4453 -49.1211 54.248 -50.8301 54.248 -53.6621 C 54.248 -54.7852 54.4434 -55.8594 54.7852 -56.9336 C 56.4941 -63.2812 64.0625 -68.6035 75.1953 -68.6035 C 86.6211 -68.6035 96.0449 -62.4023 96.0449 -51.9043 C 96.0449 -44.5312 92.0898 -40.8203 85.498 -36.3281 C 81.0547 -33.3008 78.7598 -31.0547 78.6133 -27.4414 C 78.6133 -27.0996 78.5645 -26.7578 78.5645 -26.416 C 78.3691 -23.9746 76.4648 -22.0703 73.291 -22.0703 Z M 73.5352 -3.02734 C 69.6777 -3.02734 66.4551 -5.85938 66.4551 -9.7168 C 66.4551 -13.5742 69.6289 -16.4062 73.5352 -16.4062 C 77.3926 -16.4062 80.5664 -13.623 80.5664 -9.7168 C 80.5664 -5.81055 77.3438 -3.02734 73.5352 -3.02734 Z"/>
  </g>
  <g id="Regular-L" transform="matrix(1 0 0 1 1376.38 1556)">
   <path d="M 35.0586 22.2168 L 111.816 22.2168 C 124.463 22.2168 130.859 15.8691 130.859 3.41797 L 130.859 -73.7305 C 130.859 -86.1816 124.463 -92.5293 111.816 -92.5293 L 35.0586 -92.5293 C 22.4609 -92.5293 16.0645 -86.2305 16.0645 -73.7305 L 16.0645 3.41797 C 16.0645 15.918 22.4609 22.2168 35.0586 22.2168 Z M 72.5098 -21.7285 C 69.5801 -21.7285 67.9688 -23.2422 67.9688 -26.1719 L 67.9688 -27.4414 C 67.9688 -33.6426 71.1426 -37.1582 76.123 -40.5273 C 82.1289 -44.6777 84.7168 -47.1191 84.7168 -51.6113 C 84.7168 -56.8359 80.5664 -60.498 74.0234 -60.498 C 68.7988 -60.498 65.0391 -57.5684 63.4277 -53.3203 C 61.7676 -51.123 61.1328 -49.4629 57.9102 -49.4629 C 56.0059 -49.4629 54.0039 -50.8301 54.0039 -53.3691 C 54.0039 -54.4434 54.1504 -55.4199 54.4434 -56.4453 C 55.957 -62.7441 63.2812 -68.2617 74.3652 -68.2617 C 85.3516 -68.2617 94.5312 -62.3535 94.5312 -52.0508 C 94.5312 -44.5801 90.3809 -40.8203 83.8867 -36.3281 C 79.1504 -33.0566 77.002 -30.7617 77.002 -26.9531 L 77.002 -25.7812 C 77.002 -23.4863 75.293 -21.7285 72.5098 -21.7285 Z M 72.7051 -3.125 C 69.3359 -3.125 66.2109 -5.85938 66.2109 -9.42383 C 66.2109 -12.9883 69.2871 -15.7227 72.7051 -15.7227 C 76.123 -15.7227 79.1992 -13.0371 79.1992 -9.42383 C 79.1992 -5.81055 76.0742 -3.125 72.7051 -3.125 Z"/>
  </g>
  <g id="Light-L" transform="matrix(1 0 0 1 1080.5 1556)">
   <path d="M 34.0332 21.4355 L 111.23 21.4355 C 123.096 21.4355 129.199 15.2344 129.199 3.56445 L 129.199 -73.8281 C 129.199 -85.5469 123.096 -91.6992 111.23 -91.6992 L 34.0332 -91.6992 C 22.168 -91.6992 16.0645 -85.6445 16.0645 -73.8281 L 16.0645 3.56445 C 16.0645 15.3809 22.168 21.4355 34.0332 21.4355 Z M 71.9238 -21.875 C 69.7266 -21.875 68.4082 -23.1445 68.4082 -25.3906 L 68.4082 -27.1973 C 68.4082 -32.959 71.1426 -36.4258 76.416 -40.0391 C 82.6172 -44.3359 85.0586 -47.0215 85.0586 -51.5625 C 85.0586 -57.1289 80.4688 -61.084 73.291 -61.084 C 66.9922 -61.084 62.5488 -57.1777 61.5723 -52.002 C 60.498 -50.1953 59.8633 -48.9258 57.4219 -48.9258 C 55.8105 -48.9258 54.2969 -50.0488 54.2969 -52.0508 C 54.2969 -53.0273 54.4434 -53.9551 54.6387 -54.834 C 55.9082 -61.4258 62.8418 -67.1875 73.5352 -67.1875 C 84.1797 -67.1875 92.5781 -61.2305 92.5781 -51.9043 C 92.5781 -45.0195 89.0137 -41.2598 82.373 -36.6211 C 77.4414 -33.1055 75.3418 -30.7617 75.3418 -26.7578 L 75.3418 -25.1465 C 75.3418 -23.291 74.0723 -21.875 71.9238 -21.875 Z M 72.0703 -3.85742 C 69.043 -3.85742 66.3574 -6.34766 66.3574 -9.47266 C 66.3574 -12.5977 68.9941 -15.0879 72.0703 -15.0879 C 75.1953 -15.0879 77.832 -12.5977 77.832 -9.47266 C 77.832 -6.34766 75.1465 -3.85742 72.0703 -3.85742 Z"/>
  </g>
  <g id="Thin-L" transform="matrix(1 0 0 1 784.889 1556)">
   <path d="M 32.666 20.3613 L 110.352 20.3613 C 121.24 20.3613 127.002 14.4531 127.002 3.75977 L 127.002 -73.9746 C 127.002 -84.7168 121.24 -90.5762 110.352 -90.5762 L 32.666 -90.5762 C 21.7773 -90.5762 16.0645 -84.8633 16.0645 -73.9746 L 16.0645 3.75977 C 16.0645 14.6484 21.7773 20.3613 32.666 20.3613 Z M 71.0938 -22.1191 C 69.9219 -22.1191 68.9941 -22.998 68.9941 -24.3164 L 68.9941 -26.8555 C 68.9941 -32.1289 71.1426 -35.498 76.7578 -39.4043 C 83.3008 -43.8965 85.498 -46.875 85.498 -51.4648 C 85.498 -57.4707 80.4199 -61.8652 72.3145 -61.8652 C 64.5508 -61.8652 59.3262 -56.6406 59.082 -50.293 C 58.8867 -49.0234 58.1543 -48.2422 56.7871 -48.2422 C 55.6152 -48.2422 54.7363 -48.9746 54.7363 -50.293 C 54.7363 -51.123 54.834 -51.9531 54.9316 -52.7344 C 55.8105 -59.6191 62.3047 -65.7227 72.4609 -65.7227 C 82.666 -65.7227 89.9414 -59.7656 89.9414 -51.709 C 89.9414 -45.5566 87.1582 -41.8457 80.3711 -36.9629 C 75.1465 -33.1543 73.1934 -30.7617 73.1934 -26.5625 L 73.1934 -24.2676 C 73.1934 -23.0469 72.4121 -22.1191 71.0938 -22.1191 Z M 71.2891 -4.83398 C 68.6523 -4.83398 66.6016 -7.03125 66.6016 -9.52148 C 66.6016 -12.0117 68.6523 -14.209 71.2891 -14.209 C 73.9258 -14.209 75.9766 -12.0117 75.9766 -9.52148 C 75.9766 -7.03125 73.877 -4.83398 71.2891 -4.83398 Z"/>
  </g>
  <g id="Ultralight-L" transform="matrix(1 0 0 1 488.739 1556)">
   <path d="M 31.9824 19.7754 L 109.961 19.7754 C 120.312 19.7754 125.879 14.0625 125.879 3.85742 L 125.879 -74.0723 C 125.879 -84.2773 120.312 -89.9902 109.961 -89.9902 L 31.9824 -89.9902 C 21.582 -89.9902 16.0645 -84.4727 16.0645 -74.0723 L 16.0645 3.85742 C 16.0645 14.2578 21.582 19.7754 31.9824 19.7754 Z M 70.7031 -22.2168 C 69.9707 -22.2168 69.2871 -22.9492 69.2871 -23.7305 L 69.2871 -26.6602 C 69.2871 -31.6895 71.1426 -35.0586 76.9531 -39.0625 C 83.6426 -43.7012 85.7422 -46.8262 85.7422 -51.416 C 85.7422 -57.6172 80.3711 -62.2559 71.7773 -62.2559 C 63.3301 -62.2559 57.666 -56.3477 57.8125 -49.4141 C 58.0566 -48.3887 57.3242 -47.9004 56.4453 -47.9004 C 55.5176 -47.9004 54.9316 -48.4375 54.9316 -49.4141 C 54.9316 -50.1465 54.9805 -50.9277 55.0781 -51.6113 C 55.7617 -58.6914 62.0117 -64.9902 71.9238 -64.9902 C 81.8848 -64.9902 88.623 -59.0332 88.623 -51.6113 C 88.623 -45.8496 86.2305 -42.1875 79.3457 -37.1094 C 73.9746 -33.2031 72.0703 -30.7617 72.0703 -26.4648 L 72.0703 -23.7793 C 72.0703 -22.9004 71.5332 -22.2168 70.7031 -22.2168 Z M 70.8496 -5.37109 C 68.5059 -5.37109 66.6992 -7.37305 66.6992 -9.57031 C 66.6992 -11.7188 68.5059 -13.7207 70.8496 -13.7207 C 73.2422 -13.7207 75.0488 -11.7188 75.0488 -9.57031 C 75.0488 -7.37305 73.2422 -5.37109 70.8496 -5.37109 Z"/>
  </g>
  <g id="Black-M" transform="matrix(1 0 0 1 2872.19 1126)">
   <path d="M 31.9824 13.5742 L 90.4297 13.5742 C 102.686 13.5742 109.961 6.29883 109.961 -5.95703 L 109.961 -64.4043 C 109.961 -76.6602 102.686 -83.9355 90.4297 -83.9355 L 31.9824 -83.9355 C 19.7266 -83.9355 12.4512 -76.6602 12.4512 -64.4043 L 12.4512 -5.95703 C 12.4512 6.29883 19.7266 13.5742 31.9824 13.5742 Z M 60.5957 -27.0996 C 54.9316 -27.0996 51.8555 -29.1504 51.8555 -33.252 L 51.8555 -33.3496 C 51.8555 -36.0352 54.0039 -38.2812 57.4707 -40.625 C 61.1328 -43.1152 63.2812 -44.6777 63.2812 -46.2891 C 63.2812 -47.5586 62.4512 -48.291 61.1816 -48.291 C 60.0586 -48.291 59.1797 -47.8027 57.666 -46.4355 C 56.543 -45.459 54.834 -43.9941 51.4648 -43.9941 C 46.0449 -43.9941 43.6035 -47.0215 43.6035 -50.3418 C 43.6035 -51.5625 43.8477 -52.5879 44.3359 -53.7109 C 46.7285 -59.0332 53.6133 -62.207 62.2559 -62.207 C 73.291 -62.207 81.3965 -55.8594 81.3965 -47.3145 C 81.3965 -42.3828 79.6387 -39.5508 74.0723 -36.2305 C 71.9238 -34.9121 69.4824 -33.4473 68.6035 -31.7871 C 68.5059 -31.6406 68.457 -31.543 68.4082 -31.3965 C 67.0898 -28.9551 64.5508 -27.0996 60.5957 -27.0996 Z M 60.9863 -10.1074 C 55.6641 -10.1074 52.832 -12.5977 52.832 -16.9922 C 52.832 -21.2891 55.6641 -23.7305 60.9863 -23.7305 C 66.0156 -23.7305 68.9941 -21.2402 68.9941 -16.9922 C 68.9941 -12.5977 66.1133 -10.1074 60.9863 -10.1074 Z"/>
  </g>
  <g id="Heavy-M" transform="matrix(1 0 0 1 2576.39 1126)">
   <path d="M 31.0059 12.6465 L 89.6484 12.6465 C 101.416 12.6465 108.154 5.9082 108.154 -5.81055 L 108.154 -64.5508 C 108.154 -76.2695 101.416 -83.0566 89.6484 -83.0566 L 31.0059 -83.0566 C 19.2383 -83.0566 12.4512 -76.3184 12.4512 -64.5508 L 12.4512 -5.81055 C 12.4512 5.9082 19.2383 12.6465 31.0059 12.6465 Z M 59.6191 -26.5137 C 54.6875 -26.5137 51.9531 -28.418 51.9531 -32.1777 L 51.9531 -32.4219 C 51.9531 -35.6445 54.248 -37.9883 57.8125 -40.3809 C 61.6699 -43.0176 63.7695 -44.6289 63.7695 -46.7285 C 63.7695 -48.584 62.4512 -49.7559 60.4004 -49.7559 C 58.6914 -49.7559 57.4707 -48.9746 55.9082 -47.2656 C 54.6875 -46.0938 53.2715 -44.5801 50 -44.5801 C 45.459 -44.5801 43.1641 -47.168 43.1641 -50.2441 C 43.1641 -51.416 43.3594 -52.3926 43.7988 -53.4668 C 45.9473 -58.6426 52.5879 -62.0117 61.2793 -62.0117 C 71.7773 -62.0117 79.7363 -56.1035 79.7363 -47.5586 C 79.7363 -42.334 77.5391 -39.502 72.1191 -36.1328 C 69.6777 -34.6191 67.3828 -33.0566 66.6992 -31.1035 C 66.6504 -30.957 66.6016 -30.8105 66.5527 -30.6641 C 65.5762 -28.3203 63.2324 -26.5137 59.6191 -26.5137 Z M 59.9609 -10.0586 C 55.2734 -10.0586 52.4414 -12.5 52.4414 -16.5527 C 52.4414 -20.6055 55.2246 -22.9492 59.9609 -22.9492 C 64.502 -22.9492 67.3828 -20.5566 67.3828 -16.5527 C 67.3828 -12.5 64.5508 -10.0586 59.9609 -10.0586 Z"/>
  </g>
  <g id="Bold-M" transform="matrix(1 0 0 1 2280.68 1126)">
   <path d="M 29.8828 11.6699 L 88.7207 11.6699 C 99.9512 11.6699 106.152 5.46875 106.152 -5.66406 L 106.152 -64.6973 C 106.152 -75.8789 99.9512 -82.0312 88.7207 -82.0312 L 29.8828 -82.0312 C 18.6523 -82.0312 12.4512 -75.8789 12.4512 -64.6973 L 12.4512 -5.66406 C 12.4512 5.51758 18.6523 11.6699 29.8828 11.6699 Z M 58.5449 -25.8789 C 54.3945 -25.8789 52.0996 -27.5879 52.0996 -30.957 L 52.0996 -31.3477 C 52.0996 -35.2051 54.5898 -37.6953 58.1543 -40.1367 C 62.2559 -42.9199 64.3555 -44.5801 64.3555 -47.168 C 64.3555 -49.707 62.4512 -51.3672 59.4727 -51.3672 C 57.2266 -51.3672 55.5176 -50.293 53.9551 -48.2422 C 52.5391 -46.7773 51.4648 -45.2637 48.3398 -45.2637 C 44.7754 -45.2637 42.627 -47.3633 42.627 -50.1953 C 42.627 -51.2695 42.8223 -52.1484 43.2129 -53.1738 C 45.0684 -58.1543 51.4648 -61.8164 60.2051 -61.8164 C 70.0684 -61.8164 77.8809 -56.3477 77.8809 -47.8516 C 77.8809 -42.2852 75.2441 -39.4531 69.9707 -36.084 C 67.1387 -34.2285 65.0391 -32.6172 64.5996 -30.3223 C 64.5508 -30.1758 64.5508 -30.0293 64.502 -29.834 C 63.8672 -27.6367 61.8164 -25.8789 58.5449 -25.8789 Z M 58.8379 -10.0098 C 54.7852 -10.0098 52.002 -12.4023 52.002 -16.1133 C 52.002 -19.7754 54.7363 -22.1191 58.8379 -22.1191 C 62.793 -22.1191 65.5762 -19.7754 65.5762 -16.1133 C 65.5762 -12.3535 62.793 -10.0098 58.8379 -10.0098 Z"/>
  </g>
  <g id="Semibold-M" transform="matrix(1 0 0 1 1984.65 1126)">
   <path d="M 29.1016 10.9863 L 88.0859 10.9863 C 98.9746 10.9863 104.785 5.17578 104.785 -5.56641 L 104.785 -64.8438 C 104.785 -75.5859 98.9746 -81.3477 88.0859 -81.3477 L 29.1016 -81.3477 C 18.2617 -81.3477 12.4512 -75.5859 12.4512 -64.8438 L 12.4512 -5.56641 C 12.4512 5.22461 18.2617 10.9863 29.1016 10.9863 Z M 57.8125 -25.4395 C 54.1992 -25.4395 52.2461 -27.002 52.2461 -30.127 L 52.2461 -30.6152 C 52.2461 -34.8633 54.7852 -37.5 58.3984 -39.9414 C 62.6465 -42.8711 64.7949 -44.5312 64.7949 -47.4609 C 64.7949 -50.4883 62.4512 -52.5391 58.8867 -52.5391 C 56.1523 -52.5391 54.1504 -51.2207 52.5879 -48.877 C 51.123 -47.2168 50.2441 -45.7031 47.168 -45.7031 C 44.2871 -45.7031 42.2852 -47.5098 42.2852 -50.1465 C 42.2852 -51.123 42.4805 -52.002 42.8223 -52.9297 C 44.4336 -57.8613 50.6836 -61.6699 59.4238 -61.6699 C 68.8965 -61.6699 76.6113 -56.543 76.6113 -48.0469 C 76.6113 -42.2852 73.6328 -39.4043 68.5059 -36.0352 C 65.3809 -33.9844 63.4277 -32.2754 63.1348 -29.834 C 63.1348 -29.6387 63.0859 -29.4434 63.0859 -29.2969 C 62.6953 -27.0996 60.8398 -25.4395 57.8125 -25.4395 Z M 58.0566 -10.0098 C 54.4434 -10.0098 51.709 -12.3047 51.709 -15.7715 C 51.709 -19.2383 54.4434 -21.5332 58.0566 -21.5332 C 61.6211 -21.5332 64.3555 -19.2383 64.3555 -15.7715 C 64.3555 -12.3047 61.6211 -10.0098 58.0566 -10.0098 Z"/>
  </g>
  <g id="Medium-M" transform="matrix(1 0 0 1 1688.47 1126)">
   <path d="M 28.5156 10.4492 L 87.6465 10.4492 C 98.2422 10.4492 103.711 4.98047 103.711 -5.46875 L 103.711 -64.8926 C 103.711 -75.3418 98.2422 -80.8105 87.6465 -80.8105 L 28.5156 -80.8105 C 17.9688 -80.8105 12.4512 -75.3906 12.4512 -64.8926 L 12.4512 -5.46875 C 12.4512 4.98047 17.9688 10.4492 28.5156 10.4492 Z M 57.2266 -25.0977 C 54.0527 -25.0977 52.2949 -26.5625 52.2949 -29.4922 L 52.2949 -30.0781 C 52.2949 -34.668 54.9316 -37.3047 58.5938 -39.7949 C 62.9395 -42.8223 65.0879 -44.5312 65.0879 -47.7051 C 65.0879 -51.0742 62.4512 -53.3691 58.3984 -53.3691 C 55.3711 -53.3691 53.125 -51.9043 51.5625 -49.3652 C 50 -47.6074 49.3164 -46.0938 46.3379 -46.0938 C 43.9453 -46.0938 41.9922 -47.6074 41.9922 -50.0977 C 41.9922 -51.0254 42.1875 -51.9043 42.4805 -52.7832 C 43.9941 -57.6172 50.0488 -61.5723 58.8379 -61.5723 C 67.9688 -61.5723 75.6348 -56.6895 75.6348 -48.1934 C 75.6348 -42.2852 72.4121 -39.3555 67.334 -35.9863 C 64.0625 -33.7891 62.207 -32.0801 62.0605 -29.4434 C 62.0117 -29.248 62.0117 -29.0527 62.0117 -28.8574 C 61.7676 -26.7578 60.0586 -25.0977 57.2266 -25.0977 Z M 57.4707 -9.96094 C 54.1992 -9.96094 51.5137 -12.2559 51.5137 -15.5273 C 51.5137 -18.7988 54.1504 -21.0938 57.4707 -21.0938 C 60.6934 -21.0938 63.3789 -18.8477 63.3789 -15.5273 C 63.3789 -12.207 60.6934 -9.96094 57.4707 -9.96094 Z"/>
  </g>
  <g id="Regular-M" transform="matrix(1 0 0 1 1392.45 1126)">
   <path d="M 27.7832 9.76562 L 87.0117 9.76562 C 97.2656 9.76562 102.344 4.6875 102.344 -5.37109 L 102.344 -64.9902 C 102.344 -75.0488 97.2656 -80.127 87.0117 -80.127 L 27.7832 -80.127 C 17.5781 -80.127 12.4512 -75.0977 12.4512 -64.9902 L 12.4512 -5.37109 C 12.4512 4.73633 17.5781 9.76562 27.7832 9.76562 Z M 56.4941 -24.6582 C 53.8574 -24.6582 52.3926 -26.0254 52.3926 -28.6621 L 52.3926 -29.3457 C 52.3926 -34.375 55.127 -37.1094 58.8379 -39.6484 C 63.3789 -42.7246 65.4785 -44.4824 65.4785 -47.998 C 65.4785 -51.8555 62.4512 -54.4922 57.7637 -54.4922 C 54.3457 -54.4922 51.8066 -52.7832 50.2441 -50 C 48.584 -48.0469 48.0957 -46.5332 45.166 -46.5332 C 43.5059 -46.5332 41.6504 -47.7539 41.6504 -50.0488 C 41.6504 -50.9277 41.8457 -51.7578 42.0898 -52.5879 C 43.4082 -57.3242 49.2676 -61.4258 58.1055 -61.4258 C 66.7969 -61.4258 74.3652 -56.8848 74.3652 -48.3887 C 74.3652 -42.2363 70.8496 -39.3066 65.8691 -35.9375 C 62.3535 -33.5449 60.5957 -31.7871 60.5957 -28.9062 L 60.5957 -28.2715 C 60.5957 -26.2695 59.082 -24.6582 56.4941 -24.6582 Z M 56.6895 -9.96094 C 53.8574 -9.96094 51.2207 -12.207 51.2207 -15.2344 C 51.2207 -18.2617 53.8086 -20.5078 56.6895 -20.5078 C 59.5703 -20.5078 62.1582 -18.3105 62.1582 -15.2344 C 62.1582 -12.1582 59.5215 -9.96094 56.6895 -9.96094 Z"/>
  </g>
  <g id="Light-M" transform="matrix(1 0 0 1 1096.47 1126)">
   <path d="M 26.8555 9.0332 L 86.4746 9.0332 C 95.9961 9.0332 100.879 4.15039 100.879 -5.22461 L 100.879 -65.0879 C 100.879 -74.5117 95.9961 -79.3945 86.4746 -79.3945 L 26.8555 -79.3945 C 17.334 -79.3945 12.4512 -74.5605 12.4512 -65.0879 L 12.4512 -5.22461 C 12.4512 4.19922 17.334 9.0332 26.8555 9.0332 Z M 56.0059 -24.8047 C 54.0039 -24.8047 52.832 -25.9277 52.832 -27.9297 L 52.832 -29.1016 C 52.832 -33.7891 55.127 -36.4746 59.082 -39.209 C 63.8184 -42.4316 65.7715 -44.3848 65.7715 -47.9004 C 65.7715 -52.0508 62.4023 -55.0293 57.1289 -55.0293 C 52.7344 -55.0293 49.5605 -52.4414 48.5352 -48.8281 C 47.4609 -47.2656 46.9727 -46.0938 44.7266 -46.0938 C 43.3594 -46.0938 41.9434 -47.0703 41.9434 -48.877 C 41.9434 -49.6582 42.0898 -50.3906 42.2852 -51.1719 C 43.3594 -56.1035 48.9258 -60.4492 57.373 -60.4492 C 65.7715 -60.4492 72.6074 -55.9082 72.6074 -48.2422 C 72.6074 -42.627 69.5801 -39.7461 64.502 -36.1816 C 60.791 -33.5938 59.1309 -31.7871 59.1309 -28.7598 L 59.1309 -27.6855 C 59.1309 -26.0742 57.959 -24.8047 56.0059 -24.8047 Z M 56.1523 -10.5957 C 53.6133 -10.5957 51.3672 -12.6465 51.3672 -15.2344 C 51.3672 -17.8711 53.6133 -19.9219 56.1523 -19.9219 C 58.6914 -19.9219 60.9375 -17.9199 60.9375 -15.2344 C 60.9375 -12.5977 58.6426 -10.5957 56.1523 -10.5957 Z"/>
  </g>
  <g id="Thin-M" transform="matrix(1 0 0 1 800.758 1126)">
   <path d="M 25.6348 8.05664 L 85.7422 8.05664 C 94.3848 8.05664 98.877 3.4668 98.877 -5.0293 L 98.877 -65.2344 C 98.877 -73.7305 94.3848 -78.3691 85.7422 -78.3691 L 25.6348 -78.3691 C 16.9922 -78.3691 12.4512 -73.877 12.4512 -65.2344 L 12.4512 -5.0293 C 12.4512 3.56445 16.9922 8.05664 25.6348 8.05664 Z M 55.2734 -25 C 54.1504 -25 53.3203 -25.7812 53.3203 -27.002 L 53.3203 -28.8086 C 53.3203 -33.0078 55.127 -35.6445 59.4238 -38.5742 C 64.4043 -42.041 66.1621 -44.2871 66.1621 -47.8516 C 66.1621 -52.3926 62.3535 -55.7129 56.25 -55.7129 C 50.5371 -55.7129 46.6797 -51.9531 46.3379 -47.2656 C 45.9961 -46.1914 45.459 -45.459 44.1406 -45.459 C 43.1641 -45.459 42.334 -46.0938 42.334 -47.2656 C 42.334 -47.9492 42.3828 -48.6328 42.4805 -49.2676 C 43.2617 -54.541 48.3887 -59.1797 56.3965 -59.1797 C 64.4043 -59.1797 70.2637 -54.5898 70.2637 -48.0469 C 70.2637 -43.1152 67.9688 -40.2344 62.7441 -36.4746 C 58.7402 -33.6426 57.1777 -31.7871 57.1777 -28.5645 L 57.1777 -26.9043 C 57.1777 -25.8301 56.4453 -25 55.2734 -25 Z M 55.4199 -11.4746 C 53.3203 -11.4746 51.5625 -13.2324 51.5625 -15.2832 C 51.5625 -17.3828 53.2715 -19.0918 55.4199 -19.0918 C 57.5684 -19.0918 59.2773 -17.3828 59.2773 -15.2832 C 59.2773 -13.2324 57.5195 -11.4746 55.4199 -11.4746 Z"/>
  </g>
  <g id="Ultralight-M" transform="matrix(1 0 0 1 504.535 1126)">
   <path d="M 25 7.56836 L 85.3516 7.56836 C 93.5059 7.56836 97.9004 3.125 97.9004 -4.98047 L 97.9004 -65.2832 C 97.9004 -73.3887 93.5059 -77.832 85.3516 -77.832 L 25 -77.832 C 16.7969 -77.832 12.4512 -73.4863 12.4512 -65.2832 L 12.4512 -4.98047 C 12.4512 3.22266 16.7969 7.56836 25 7.56836 Z M 54.9316 -25.0977 C 54.1992 -25.0977 53.6133 -25.7324 53.6133 -26.5137 L 53.6133 -28.6621 C 53.6133 -32.6172 55.127 -35.2051 59.5703 -38.2812 C 64.6973 -41.8457 66.3574 -44.2383 66.3574 -47.8027 C 66.3574 -52.5391 62.3047 -56.0547 55.8105 -56.0547 C 49.4629 -56.0547 45.166 -51.709 45.2148 -46.4844 C 45.2148 -45.6055 44.6777 -45.166 43.8477 -45.166 C 43.0664 -45.166 42.5293 -45.6055 42.5293 -46.4844 C 42.5293 -47.0703 42.5781 -47.7051 42.627 -48.291 C 43.2129 -53.7109 48.1445 -58.4961 55.9082 -58.4961 C 63.6719 -58.4961 69.0918 -53.9062 69.0918 -47.9492 C 69.0918 -43.4082 67.0898 -40.5273 61.8164 -36.6211 C 57.666 -33.6426 56.2012 -31.7871 56.2012 -28.4668 L 56.2012 -26.5137 C 56.2012 -25.7324 55.7129 -25.0977 54.9316 -25.0977 Z M 55.0293 -11.9141 C 53.125 -11.9141 51.6602 -13.5254 51.6602 -15.332 C 51.6602 -17.0898 53.125 -18.7012 55.0293 -18.7012 C 56.9824 -18.7012 58.4473 -17.0898 58.4473 -15.332 C 58.4473 -13.5254 56.9824 -11.9141 55.0293 -11.9141 Z"/>
  </g>
  <g id="Black-S" transform="matrix(1 0 0 1 2885.5 696)">
   <path d="M 25 2.92969 L 70.8008 2.92969 C 80.3711 2.92969 86.0352 -2.73438 86.0352 -12.3047 L 86.0352 -58.1055 C 86.0352 -67.6758 80.3711 -73.3398 70.8008 -73.3398 L 25 -73.3398 C 15.4297 -73.3398 9.76562 -67.6758 9.76562 -58.1055 L 9.76562 -12.3047 C 9.76562 -2.73438 15.4297 2.92969 25 2.92969 Z M 47.4121 -28.8086 C 43.0176 -28.8086 40.625 -30.4199 40.625 -33.5938 L 40.625 -33.6914 C 40.625 -35.8398 42.334 -37.5977 45.0684 -39.4531 C 47.9492 -41.4062 49.6094 -42.627 49.6094 -43.9453 C 49.6094 -44.9707 48.9258 -45.5566 47.9004 -45.5566 C 46.9727 -45.5566 46.2891 -45.166 45.0684 -44.0918 C 44.1895 -43.3105 42.8711 -42.1387 40.2344 -42.1387 C 36.0352 -42.1387 34.1309 -44.4824 34.1309 -47.0703 C 34.1309 -48.0469 34.3262 -48.8281 34.7168 -49.707 C 36.5723 -53.8574 41.9434 -56.3477 48.7305 -56.3477 C 57.3242 -56.3477 63.6719 -51.416 63.6719 -44.7266 C 63.6719 -40.8203 62.2559 -38.623 57.9102 -35.9863 C 56.2012 -34.9609 54.2969 -33.7891 53.6133 -32.4707 C 53.5645 -32.373 53.5156 -32.2754 53.4668 -32.1777 C 52.4902 -30.2734 50.4883 -28.8086 47.4121 -28.8086 Z M 47.7051 -15.5273 C 43.6035 -15.5273 41.3574 -17.4805 41.3574 -20.8984 C 41.3574 -24.2676 43.6035 -26.1719 47.7051 -26.1719 C 51.6113 -26.1719 53.9551 -24.2188 53.9551 -20.8984 C 53.9551 -17.4805 51.709 -15.5273 47.7051 -15.5273 Z"/>
  </g>
  <g id="Heavy-S" transform="matrix(1 0 0 1 2589.4 696)">
   <path d="M 24.3652 2.34375 L 70.2637 2.34375 C 79.541 2.34375 84.8145 -2.97852 84.8145 -12.207 L 84.8145 -58.2031 C 84.8145 -67.4316 79.541 -72.7539 70.2637 -72.7539 L 24.3652 -72.7539 C 15.0879 -72.7539 9.76562 -67.4316 9.76562 -58.2031 L 9.76562 -12.207 C 9.76562 -2.97852 15.0879 2.34375 24.3652 2.34375 Z M 46.7285 -28.3691 C 42.8223 -28.3691 40.6738 -29.8828 40.6738 -32.8613 L 40.6738 -33.0078 C 40.6738 -35.5957 42.5293 -37.4512 45.2637 -39.3066 C 48.291 -41.3574 50 -42.5781 50 -44.2383 C 50 -45.7031 48.9258 -46.6309 47.3633 -46.6309 C 46.1426 -46.6309 45.2148 -46.0938 43.8965 -44.873 C 42.8711 -43.8477 41.7969 -42.6758 39.1602 -42.6758 C 35.5957 -42.6758 33.7402 -44.6777 33.7402 -47.168 C 33.7402 -48.0469 33.9355 -48.8281 34.2773 -49.6582 C 35.9863 -53.6621 41.2109 -56.3477 48.0469 -56.3477 C 56.25 -56.3477 62.5977 -51.709 62.5977 -44.9219 C 62.5977 -40.7715 60.791 -38.5254 56.5918 -35.9375 C 54.6387 -34.7168 52.8809 -33.4961 52.3438 -31.9824 C 52.2949 -31.8848 52.2461 -31.7871 52.2461 -31.6895 C 51.4648 -29.7852 49.6094 -28.3691 46.7285 -28.3691 Z M 46.9727 -15.4297 C 43.3105 -15.4297 41.0645 -17.3828 41.0645 -20.5566 C 41.0645 -23.7793 43.3105 -25.6348 46.9727 -25.6348 C 50.5371 -25.6348 52.8809 -23.7305 52.8809 -20.5566 C 52.8809 -17.334 50.5859 -15.4297 46.9727 -15.4297 Z"/>
  </g>
  <g id="Bold-S" transform="matrix(1 0 0 1 2293.35 696)">
   <path d="M 23.6328 1.66016 L 69.6289 1.66016 C 78.6133 1.66016 83.4961 -3.22266 83.4961 -12.1094 L 83.4961 -58.3008 C 83.4961 -67.1875 78.6133 -72.0703 69.6289 -72.0703 L 23.6328 -72.0703 C 14.6973 -72.0703 9.76562 -67.1875 9.76562 -58.3008 L 9.76562 -12.1094 C 9.76562 -3.22266 14.6973 1.66016 23.6328 1.66016 Z M 45.9961 -27.832 C 42.5781 -27.832 40.7715 -29.248 40.7715 -32.0312 L 40.7715 -32.2266 C 40.7715 -35.3516 42.7734 -37.3047 45.5078 -39.1602 C 48.6816 -41.3574 50.3906 -42.5781 50.3906 -44.5801 C 50.3906 -46.5332 48.9258 -47.8027 46.7285 -47.8027 C 45.166 -47.8027 43.9941 -47.168 42.627 -45.752 C 41.4062 -44.4824 40.5762 -43.2129 37.9395 -43.2129 C 35.1074 -43.2129 33.3008 -44.9219 33.3008 -47.2656 C 33.3008 -48.0957 33.4961 -48.8281 33.7891 -49.6094 C 35.3027 -53.5156 40.3809 -56.2988 47.3145 -56.2988 C 55.0781 -56.2988 61.4258 -52.0508 61.4258 -45.166 C 61.4258 -40.6738 59.1797 -38.4277 55.0781 -35.8398 C 52.9297 -34.4238 51.2695 -33.1543 50.9277 -31.3965 C 50.8789 -31.3477 50.8789 -31.2012 50.8301 -31.1523 C 50.3418 -29.2969 48.6816 -27.832 45.9961 -27.832 Z M 46.1914 -15.332 C 42.9688 -15.332 40.7227 -17.2363 40.7227 -20.2148 C 40.7227 -23.1934 42.9688 -25.0977 46.1914 -25.0977 C 49.3652 -25.0977 51.6602 -23.1934 51.6602 -20.2148 C 51.6602 -17.1875 49.3652 -15.332 46.1914 -15.332 Z"/>
  </g>
  <g id="Semibold-S" transform="matrix(1 0 0 1 1997.1 696)">
   <path d="M 23.0957 1.17188 L 69.1895 1.17188 C 77.9297 1.17188 82.5684 -3.36914 82.5684 -12.0117 L 82.5684 -58.3984 C 82.5684 -67.041 77.9297 -71.582 69.1895 -71.582 L 23.0957 -71.582 C 14.4043 -71.582 9.76562 -67.041 9.76562 -58.3984 L 9.76562 -12.0117 C 9.76562 -3.36914 14.4043 1.17188 23.0957 1.17188 Z M 45.459 -27.4902 C 42.4316 -27.4902 40.8203 -28.8086 40.8203 -31.4453 L 40.8203 -31.6895 C 40.8203 -35.1562 42.9199 -37.207 45.7031 -39.0625 C 48.9746 -41.3086 50.6836 -42.5293 50.6836 -44.8242 C 50.6836 -47.1191 48.9746 -48.6328 46.3379 -48.6328 C 44.5312 -48.6328 43.1152 -47.9004 41.748 -46.3379 C 40.3809 -44.9219 39.6973 -43.6035 37.1094 -43.6035 C 34.7656 -43.6035 33.0078 -45.1172 33.0078 -47.3145 C 33.0078 -48.0957 33.2031 -48.8281 33.4473 -49.6094 C 34.8145 -53.3691 39.7949 -56.2988 46.7773 -56.2988 C 54.2969 -56.2988 60.5957 -52.2949 60.5957 -45.3125 C 60.5957 -40.625 58.0566 -38.3789 54.0527 -35.791 C 51.709 -34.2285 50.1465 -32.9102 49.9512 -31.0059 C 49.9023 -30.957 49.9023 -30.8105 49.9023 -30.7617 C 49.5605 -28.9062 47.998 -27.4902 45.459 -27.4902 Z M 45.6543 -15.2344 C 42.7246 -15.2344 40.4785 -17.1387 40.4785 -19.9707 C 40.4785 -22.8027 42.7246 -24.6582 45.6543 -24.6582 C 48.5352 -24.6582 50.7812 -22.8027 50.7812 -19.9707 C 50.7812 -17.0898 48.5352 -15.2344 45.6543 -15.2344 Z"/>
  </g>
  <g id="Medium-S" transform="matrix(1 0 0 1 1700.75 696)">
   <path d="M 22.7051 0.830078 L 68.8965 0.830078 C 77.4414 0.830078 81.8359 -3.51562 81.8359 -11.9629 L 81.8359 -58.4473 C 81.8359 -66.8945 77.4414 -71.2402 68.8965 -71.2402 L 22.7051 -71.2402 C 14.209 -71.2402 9.76562 -66.8945 9.76562 -58.4473 L 9.76562 -11.9629 C 9.76562 -3.51562 14.209 0.830078 22.7051 0.830078 Z M 45.0684 -27.2461 C 42.334 -27.2461 40.8203 -28.4668 40.8203 -31.0059 L 40.8203 -31.25 C 40.8203 -35.0098 43.0664 -37.1094 45.8008 -39.0137 C 49.1699 -41.3086 50.8789 -42.5293 50.8789 -45.0195 C 50.8789 -47.5586 48.9746 -49.2676 45.9961 -49.2676 C 44.043 -49.2676 42.4805 -48.4375 41.0645 -46.7773 C 39.5996 -45.2637 39.0625 -43.9453 36.4746 -43.9453 C 34.4727 -43.9453 32.8125 -45.2148 32.8125 -47.3633 C 32.8125 -48.1445 32.959 -48.8281 33.2031 -49.5605 C 34.4727 -53.2715 39.3555 -56.25 46.3867 -56.25 C 53.6621 -56.25 59.9609 -52.4414 59.9609 -45.4102 C 59.9609 -40.5762 57.2266 -38.3301 53.2715 -35.7422 C 50.7812 -34.082 49.3164 -32.7637 49.1699 -30.7129 C 49.1699 -30.6641 49.1699 -30.5176 49.1699 -30.4688 C 48.9746 -28.6621 47.5098 -27.2461 45.0684 -27.2461 Z M 45.2148 -15.1855 C 42.5781 -15.1855 40.2832 -17.041 40.2832 -19.7754 C 40.2832 -22.5098 42.5293 -24.3652 45.2148 -24.3652 C 47.9004 -24.3652 50.1465 -22.5098 50.1465 -19.7754 C 50.1465 -17.041 47.9004 -15.1855 45.2148 -15.1855 Z"/>
  </g>
  <g id="Regular-S" transform="matrix(1 0 0 1 1404.51 696)">
   <path d="M 22.2168 0.390625 L 68.457 0.390625 C 76.8066 0.390625 80.9082 -3.71094 80.9082 -11.9141 L 80.9082 -58.4961 C 80.9082 -66.6992 76.8066 -70.8008 68.457 -70.8008 L 22.2168 -70.8008 C 13.916 -70.8008 9.76562 -66.6992 9.76562 -58.4961 L 9.76562 -11.9141 C 9.76562 -3.71094 13.916 0.390625 22.2168 0.390625 Z M 44.5312 -26.8555 C 42.1387 -26.8555 40.8691 -28.0762 40.8691 -30.4688 L 40.8691 -30.7129 C 40.8691 -34.8145 43.2129 -37.0117 45.9961 -38.916 C 49.4141 -41.2598 51.1719 -42.5293 51.1719 -45.2637 C 51.1719 -48.1445 48.9746 -50.0977 45.6055 -50.0977 C 43.4082 -50.0977 41.6504 -49.1699 40.1855 -47.3633 C 38.5742 -45.6543 38.2324 -44.3359 35.6445 -44.3359 C 34.1797 -44.3359 32.5195 -45.4102 32.5195 -47.4121 C 32.5195 -48.1445 32.666 -48.8281 32.9102 -49.5117 C 34.0332 -53.125 38.8184 -56.25 45.8984 -56.25 C 52.8809 -56.25 59.1309 -52.6855 59.1309 -45.6055 C 59.1309 -40.5273 56.1035 -38.2324 52.2949 -35.6934 C 49.6094 -33.8867 48.1934 -32.5195 48.1934 -30.3711 L 48.1934 -30.0781 C 48.1934 -28.2715 46.8262 -26.8555 44.5312 -26.8555 Z M 44.6777 -15.0879 C 42.334 -15.0879 40.0391 -16.9434 40.0391 -19.5312 C 40.0391 -22.1191 42.2852 -23.9746 44.6777 -23.9746 C 47.0703 -23.9746 49.3164 -22.168 49.3164 -19.5312 C 49.3164 -16.8945 47.0215 -15.0879 44.6777 -15.0879 Z"/>
  </g>
  <g id="Light-S" transform="matrix(1 0 0 1 1108.46 696)">
   <path d="M 21.3867 -0.292969 L 67.9688 -0.292969 C 75.7324 -0.292969 79.5898 -4.15039 79.5898 -11.7676 L 79.5898 -58.5938 C 79.5898 -66.2109 75.7324 -70.1172 67.9688 -70.1172 L 21.3867 -70.1172 C 13.6719 -70.1172 9.76562 -66.2598 9.76562 -58.5938 L 9.76562 -11.7676 C 9.76562 -4.15039 13.6719 -0.292969 21.3867 -0.292969 Z M 44.0918 -27.002 C 42.2363 -27.002 41.2109 -27.9785 41.2109 -29.7852 L 41.2109 -30.5176 C 41.2109 -34.3262 43.2129 -36.4746 46.1914 -38.4766 C 49.8535 -41.0156 51.416 -42.4316 51.416 -45.2148 C 51.416 -48.3398 48.9258 -50.5371 45.0195 -50.5371 C 41.9434 -50.5371 39.6973 -48.8281 38.6719 -46.3379 C 37.5977 -44.9707 37.2559 -43.8965 35.2051 -43.8965 C 34.0332 -43.8965 32.7637 -44.7754 32.7637 -46.3867 C 32.7637 -47.0215 32.8613 -47.6074 33.0566 -48.2422 C 33.9844 -52.0508 38.4766 -55.3711 45.2148 -55.3711 C 51.9531 -55.3711 57.5684 -51.8066 57.5684 -45.459 C 57.5684 -40.8691 55.0293 -38.5742 51.0742 -35.8887 C 48.2422 -33.9355 46.9238 -32.5195 46.9238 -30.2246 L 46.9238 -29.541 C 46.9238 -28.125 45.8496 -27.002 44.0918 -27.002 Z M 44.1895 -15.6738 C 42.1387 -15.6738 40.1855 -17.3828 40.1855 -19.5801 C 40.1855 -21.7773 42.0898 -23.4375 44.1895 -23.4375 C 46.3379 -23.4375 48.2422 -21.8262 48.2422 -19.5801 C 48.2422 -17.334 46.2891 -15.6738 44.1895 -15.6738 Z"/>
  </g>
  <g id="Thin-S" transform="matrix(1 0 0 1 812.599 696)">
   <path d="M 20.3125 -1.12305 L 67.334 -1.12305 C 74.2676 -1.12305 77.8809 -4.78516 77.8809 -11.6211 L 77.8809 -58.6914 C 77.8809 -65.5762 74.2676 -69.2383 67.334 -69.2383 L 20.3125 -69.2383 C 13.3789 -69.2383 9.76562 -65.625 9.76562 -58.6914 L 9.76562 -11.6211 C 9.76562 -4.6875 13.3789 -1.12305 20.3125 -1.12305 Z M 43.457 -27.1973 C 42.3828 -27.1973 41.6992 -27.8809 41.6992 -28.9551 L 41.6992 -30.2734 C 41.6992 -33.6426 43.2129 -35.7422 46.4844 -37.9883 C 50.3418 -40.6738 51.7578 -42.334 51.7578 -45.1172 C 51.7578 -48.584 48.877 -51.123 44.2383 -51.123 C 40.0391 -51.123 37.1094 -48.4375 36.7188 -44.9707 C 36.3281 -43.9941 35.8887 -43.3594 34.7168 -43.3594 C 33.8379 -43.3594 33.1055 -43.9453 33.1055 -44.9707 C 33.1055 -45.5078 33.1543 -46.0449 33.252 -46.582 C 33.9355 -50.6348 38.0371 -54.248 44.3848 -54.248 C 50.7324 -54.248 55.5176 -50.6348 55.5176 -45.3125 C 55.5176 -41.3086 53.5645 -39.0625 49.5117 -36.1328 C 46.4355 -33.9355 45.166 -32.5195 45.166 -30.0293 L 45.166 -28.8574 C 45.166 -27.9297 44.5312 -27.1973 43.457 -27.1973 Z M 43.5547 -16.4551 C 41.8457 -16.4551 40.3809 -17.8711 40.3809 -19.5801 C 40.3809 -21.3379 41.8457 -22.7539 43.5547 -22.7539 C 45.3125 -22.7539 46.7773 -21.3379 46.7773 -19.5801 C 46.7773 -17.8711 45.3125 -16.4551 43.5547 -16.4551 Z"/>
  </g>
  <g id="Ultralight-S" transform="matrix(1 0 0 1 516.352 696)">
   <path d="M 19.7754 -1.5625 L 66.9922 -1.5625 C 73.5352 -1.5625 76.9531 -5.12695 76.9531 -11.5234 L 76.9531 -58.7891 C 76.9531 -65.2344 73.5352 -68.75 66.9922 -68.75 L 19.7754 -68.75 C 13.2324 -68.75 9.76562 -65.2832 9.76562 -58.7891 L 9.76562 -11.5234 C 9.76562 -5.0293 13.2324 -1.5625 19.7754 -1.5625 Z M 43.1152 -27.2949 C 42.4805 -27.2949 41.9434 -27.7832 41.9434 -28.5156 L 41.9434 -30.127 C 41.9434 -33.3008 43.2129 -35.3516 46.6309 -37.6953 C 50.6348 -40.4785 51.9531 -42.2852 51.9531 -45.0684 C 51.9531 -48.7305 48.8281 -51.4648 43.8477 -51.4648 C 39.0625 -51.4648 35.791 -48.1934 35.7422 -44.2383 C 35.6445 -43.5059 35.2051 -43.0664 34.4238 -43.0664 C 33.7402 -43.0664 33.252 -43.5059 33.252 -44.2383 C 33.252 -44.7754 33.3008 -45.2637 33.3496 -45.7031 C 33.8867 -49.9023 37.793 -53.6621 43.9453 -53.6621 C 50.0977 -53.6621 54.4434 -50.0488 54.4434 -45.2148 C 54.4434 -41.5527 52.832 -39.3066 48.6816 -36.2793 C 45.459 -33.9844 44.2871 -32.5195 44.2871 -29.9316 L 44.2871 -28.5156 C 44.2871 -27.832 43.8477 -27.2949 43.1152 -27.2949 Z M 43.2617 -16.8457 C 41.6992 -16.8457 40.4785 -18.1641 40.4785 -19.6289 C 40.4785 -21.0938 41.6992 -22.4121 43.2617 -22.4121 C 44.7754 -22.4121 46.0449 -21.0938 46.0449 -19.6289 C 46.0449 -18.1641 44.7754 -16.8457 43.2617 -16.8457 Z"/>
  </g>
 </g>
</svg>
